<?xml version="1.0" standalone="no"?>
<!DOCTYPE svg PUBLIC "-//W3C//DTD SVG 20010904//EN"
 "http://www.w3.org/TR/2001/REC-SVG-20010904/DTD/svg10.dtd">
<svg version="1.0" xmlns="http://www.w3.org/2000/svg"
 width="80.000000pt" height="80.000000pt" viewBox="0 0 80.000000 80.000000"
 preserveAspectRatio="xMidYMid meet">
<metadata>
Created by potrace 1.14, written by Peter Selinger 2001-2017
</metadata>
<g transform="translate(0.000000,80.000000) scale(0.100000,-0.100000)"
fill="#000000" stroke="none">
<path d="M0 400 l0 -400 69 0 c61 0 69 2 65 18 -4 11 5 23 25 35 l30 17 -6
-35 c-5 -30 -3 -35 14 -35 11 0 30 11 43 25 24 25 50 33 50 15 0 -5 -6 -7 -13
-4 -7 2 -22 -4 -32 -16 -18 -20 -18 -20 18 -20 19 0 38 6 40 13 4 9 6 9 6 0 1
-7 13 -13 27 -13 14 0 23 4 20 9 -4 5 2 7 12 4 10 -2 26 5 36 16 25 28 34 26
28 -4 -3 -17 0 -25 9 -25 8 0 24 28 38 66 22 63 24 64 42 48 28 -25 25 -62 -6
-74 -28 -10 -34 -40 -9 -40 9 0 30 10 47 22 l32 22 -19 -22 -19 -21 127 0 126
0 0 45 c0 26 -9 62 -21 86 -17 33 -19 46 -10 60 22 36 13 91 -30 163 -22 39
-46 77 -52 86 -7 8 0 2 15 -15 15 -16 43 -59 62 -95 l35 -66 1 268 0 267 -400
0 -400 0 0 -400z m509 235 l0 -20 -9 20 c-5 11 -9 29 -9 40 l0 20 9 -20 c5
-11 9 -29 9 -40z m-139 -187 c7 -22 6 -28 -6 -28 -10 0 -14 12 -13 43 0 23 3
35 6 27 2 -8 8 -27 13 -42z m29 -65 c8 -15 4 -18 -21 -20 -39 -3 -63 -22 -48
-37 6 -6 16 -11 23 -11 7 -1 11 -6 10 -13 -2 -7 7 -12 20 -11 12 0 16 3 10 6
-7 2 -13 9 -13 14 0 6 5 7 10 4 6 -3 10 1 10 9 0 11 8 15 25 14 19 -2 25 -8
27 -28 0 -14 2 -38 3 -55 1 -16 0 -36 -3 -43 -5 -15 -120 -92 -137 -92 -15 0
-84 50 -106 76 -13 15 -39 76 -39 90 0 2 10 4 23 5 21 0 21 1 2 9 -17 7 -17 9
-2 9 9 1 17 6 17 11 0 6 7 10 16 10 8 0 13 4 10 9 -4 5 7 12 24 15 16 3 44 9
60 12 17 3 30 12 30 20 0 20 37 17 49 -3z m161 -3 c0 -5 -2 -10 -4 -10 -3 0
-8 5 -11 10 -3 6 -1 10 4 10 6 0 11 -4 11 -10z m0 -40 c0 -11 -14 -34 -31 -52
-21 -23 -27 -26 -20 -11 6 12 16 25 21 28 6 3 10 17 10 31 0 13 5 24 10 24 6
0 10 -9 10 -20z m-91 -217 c-1 -53 -6 -49 -11 10 -2 20 0 37 4 37 4 0 8 -21 7
-47z m-56 25 c-13 -6 -23 -17 -23 -25 0 -7 -5 -13 -10 -13 -14 0 5 36 22 43
25 10 33 6 11 -5z"/>
<path d="M250 230 c0 -5 5 -10 11 -10 5 0 7 5 4 10 -3 6 -8 10 -11 10 -2 0 -4
-4 -4 -10z"/>
<path d="M285 180 c-3 -5 1 -10 10 -10 9 0 13 5 10 10 -3 6 -8 10 -10 10 -2 0
-7 -4 -10 -10z"/>
</g>
</svg>
